<svg width="16" height="16" viewBox="0 0 16 16" fill="none" xmlns="http://www.w3.org/2000/svg">
<path d="M10.0002 15.1666H6.00016C2.38016 15.1666 0.833496 13.6199 0.833496 9.99992V5.99992C0.833496 2.37992 2.38016 0.833252 6.00016 0.833252H9.3335C9.60683 0.833252 9.8335 1.05992 9.8335 1.33325C9.8335 1.60659 9.60683 1.83325 9.3335 1.83325H6.00016C2.92683 1.83325 1.8335 2.92659 1.8335 5.99992V9.99992C1.8335 13.0733 2.92683 14.1666 6.00016 14.1666H10.0002C13.0735 14.1666 14.1668 13.0733 14.1668 9.99992V6.66659C14.1668 6.39325 14.3935 6.16659 14.6668 6.16659C14.9402 6.16659 15.1668 6.39325 15.1668 6.66659V9.99992C15.1668 13.6199 13.6202 15.1666 10.0002 15.1666Z" fill="#292D32"/>
<path d="M14.6668 7.16658H12.0002C9.72016 7.16658 8.8335 6.27991 8.8335 3.99991V1.33324C8.8335 1.13324 8.9535 0.946578 9.14016 0.873244C9.32683 0.793244 9.54016 0.839911 9.68683 0.979911L15.0202 6.31324C15.1602 6.45324 15.2068 6.67324 15.1268 6.85991C15.0468 7.04658 14.8668 7.16658 14.6668 7.16658ZM9.8335 2.53991V3.99991C9.8335 5.71991 10.2802 6.16658 12.0002 6.16658H13.4602L9.8335 2.53991Z" fill="#292D32"/>
<path d="M8.6665 9.16675H4.6665C4.39317 9.16675 4.1665 8.94008 4.1665 8.66675C4.1665 8.39341 4.39317 8.16675 4.6665 8.16675H8.6665C8.93984 8.16675 9.1665 8.39341 9.1665 8.66675C9.1665 8.94008 8.93984 9.16675 8.6665 9.16675Z" fill="#292D32"/>
<path d="M7.33317 11.8333H4.6665C4.39317 11.8333 4.1665 11.6066 4.1665 11.3333C4.1665 11.0599 4.39317 10.8333 4.6665 10.8333H7.33317C7.6065 10.8333 7.83317 11.0599 7.83317 11.3333C7.83317 11.6066 7.6065 11.8333 7.33317 11.8333Z" fill="#292D32"/>
</svg>
