<svg width="36" height="43" viewBox="0 0 36 43" fill="none" xmlns="http://www.w3.org/2000/svg">
<path fill-rule="evenodd" clip-rule="evenodd" d="M0 11.2786L18.0245 0.797852L36 11.2786V32.1043L18.0832 42.4299L0 32.211V11.2786ZM19.0621 24.1443H12.2907V28.4781H19.8645V31.8521H8.12221V13.6247H19.4633V16.9987H12.2907V20.7993H19.0621V24.1443ZM35.512 27.9158V12.6552L31.3435 12.6649V19.8298H31.2848C30.6879 18.9185 29.4256 18.3367 27.7719 18.3367C24.5917 18.3367 21.7735 20.9254 21.7931 25.3756C21.7931 29.4864 24.347 32.1721 27.4979 32.1721C29.2299 32.1721 30.8444 31.4158 31.686 29.9324H31.7447L31.9208 31.8715H35.6196C35.5609 30.9892 35.512 29.4186 35.512 27.9158ZM31.2946 23.4947C31.3435 23.7274 31.3533 24.0085 31.3533 24.2412V25.967C31.3533 26.2967 31.3337 26.6166 31.2652 26.8978C31.0108 28.0612 30.042 28.8756 28.858 28.8756C27.126 28.8756 26.0203 27.4698 26.0203 25.2399C26.0203 23.1553 26.9793 21.478 28.8874 21.478C30.1497 21.478 31.0597 22.3894 31.2946 23.4947Z" fill="#0B58F5"/>
</svg>
